<svg width="78" height="24" viewBox="0 0 78 24" fill="none" xmlns="http://www.w3.org/2000/svg">
<path d="M2.352 7.778V11.04H5.908V12.09H2.352V15.45H6.328V16.5H1.078V6.728H6.328V7.778H2.352ZM11.9937 8.688C12.9271 8.688 13.6831 8.97267 14.2617 9.542C14.8404 10.102 15.1297 10.914 15.1297 11.978V16.5H13.8697V12.16C13.8697 11.3947 13.6784 10.8113 13.2957 10.41C12.9131 9.99933 12.3904 9.794 11.7277 9.794C11.0557 9.794 10.5191 10.004 10.1177 10.424C9.72573 10.844 9.52973 11.4553 9.52973 12.258V16.5H8.25573V8.828H9.52973V9.92C9.78173 9.528 10.1224 9.22467 10.5517 9.01C10.9904 8.79533 11.4711 8.688 11.9937 8.688ZM20.3748 8.702C21.0375 8.702 21.6161 8.84667 22.1108 9.136C22.6148 9.42533 22.9881 9.78933 23.2308 10.228V8.828H24.5188V16.668C24.5188 17.368 24.3695 17.9887 24.0708 18.53C23.7721 19.0807 23.3428 19.51 22.7828 19.818C22.2321 20.126 21.5881 20.28 20.8508 20.28C19.8428 20.28 19.0028 20.042 18.3308 19.566C17.6588 19.09 17.2621 18.4413 17.1408 17.62H18.4008C18.5408 18.0867 18.8301 18.46 19.2688 18.74C19.7075 19.0293 20.2348 19.174 20.8508 19.174C21.5508 19.174 22.1201 18.9547 22.5588 18.516C23.0068 18.0773 23.2308 17.4613 23.2308 16.668V15.058C22.9788 15.506 22.6055 15.8793 22.1108 16.178C21.6161 16.4767 21.0375 16.626 20.3748 16.626C19.6935 16.626 19.0728 16.458 18.5128 16.122C17.9621 15.786 17.5281 15.3147 17.2108 14.708C16.8935 14.1013 16.7348 13.4107 16.7348 12.636C16.7348 11.852 16.8935 11.166 17.2108 10.578C17.5281 9.98067 17.9621 9.51867 18.5128 9.192C19.0728 8.86533 19.6935 8.702 20.3748 8.702ZM23.2308 12.65C23.2308 12.0713 23.1141 11.5673 22.8808 11.138C22.6475 10.7087 22.3301 10.382 21.9288 10.158C21.5368 9.92467 21.1028 9.808 20.6268 9.808C20.1508 9.808 19.7168 9.92 19.3248 10.144C18.9328 10.368 18.6201 10.6947 18.3868 11.124C18.1535 11.5533 18.0368 12.0573 18.0368 12.636C18.0368 13.224 18.1535 13.7373 18.3868 14.176C18.6201 14.6053 18.9328 14.9367 19.3248 15.17C19.7168 15.394 20.1508 15.506 20.6268 15.506C21.1028 15.506 21.5368 15.394 21.9288 15.17C22.3301 14.9367 22.6475 14.6053 22.8808 14.176C23.1141 13.7373 23.2308 13.2287 23.2308 12.65ZM27.9458 6.14V16.5H26.6718V6.14H27.9458ZM30.7751 7.582C30.5324 7.582 30.3271 7.498 30.1591 7.33C29.9911 7.162 29.9071 6.95667 29.9071 6.714C29.9071 6.47133 29.9911 6.266 30.1591 6.098C30.3271 5.93 30.5324 5.846 30.7751 5.846C31.0084 5.846 31.2044 5.93 31.3631 6.098C31.5311 6.266 31.6151 6.47133 31.6151 6.714C31.6151 6.95667 31.5311 7.162 31.3631 7.33C31.2044 7.498 31.0084 7.582 30.7751 7.582ZM31.3911 8.828V16.5H30.1171V8.828H31.3911ZM36.2784 16.626C35.6904 16.626 35.163 16.528 34.6964 16.332C34.2297 16.1267 33.861 15.8467 33.5904 15.492C33.3197 15.128 33.1704 14.7127 33.1424 14.246H34.4584C34.4957 14.6287 34.673 14.9413 34.9904 15.184C35.317 15.4267 35.7417 15.548 36.2644 15.548C36.7497 15.548 37.1324 15.4407 37.4124 15.226C37.6924 15.0113 37.8324 14.7407 37.8324 14.414C37.8324 14.078 37.683 13.8307 37.3844 13.672C37.0857 13.504 36.6237 13.3407 35.9984 13.182C35.429 13.0327 34.9624 12.8833 34.5984 12.734C34.2437 12.5753 33.9357 12.3467 33.6744 12.048C33.4224 11.74 33.2964 11.3387 33.2964 10.844C33.2964 10.452 33.413 10.0927 33.6464 9.766C33.8797 9.43933 34.211 9.18267 34.6404 8.996C35.0697 8.8 35.5597 8.702 36.1104 8.702C36.9597 8.702 37.6457 8.91667 38.1684 9.346C38.691 9.77533 38.971 10.3633 39.0084 11.11H37.7344C37.7064 10.7087 37.543 10.3867 37.2444 10.144C36.955 9.90133 36.563 9.78 36.0684 9.78C35.611 9.78 35.247 9.878 34.9764 10.074C34.7057 10.27 34.5704 10.5267 34.5704 10.844C34.5704 11.096 34.6497 11.306 34.8084 11.474C34.9764 11.6327 35.1817 11.7633 35.4244 11.866C35.6764 11.9593 36.0217 12.0667 36.4604 12.188C37.011 12.3373 37.459 12.4867 37.8044 12.636C38.1497 12.776 38.4437 12.9907 38.6864 13.28C38.9384 13.5693 39.069 13.9473 39.0784 14.414C39.0784 14.834 38.9617 15.212 38.7284 15.548C38.495 15.884 38.1637 16.15 37.7344 16.346C37.3144 16.5327 36.829 16.626 36.2784 16.626ZM44.6848 8.688C45.2635 8.688 45.7862 8.814 46.2528 9.066C46.7195 9.30867 47.0835 9.67733 47.3448 10.172C47.6155 10.6667 47.7508 11.2687 47.7508 11.978V16.5H46.4908V12.16C46.4908 11.3947 46.2995 10.8113 45.9168 10.41C45.5342 9.99933 45.0115 9.794 44.3488 9.794C43.6768 9.794 43.1402 10.004 42.7388 10.424C42.3468 10.844 42.1508 11.4553 42.1508 12.258V16.5H40.8768V6.14H42.1508V9.92C42.4028 9.528 42.7482 9.22467 43.1868 9.01C43.6348 8.79533 44.1342 8.688 44.6848 8.688Z" fill="#FAFAFA"/>
<path d="M66.364 12.95L71.314 8L72.728 9.414L66.364 15.778L60 9.414L61.414 8L66.364 12.95Z" fill="white"/>
</svg>
